<mxfile host="app.diagrams.net" agent="Mozilla/5.0 (Macintosh; Intel Mac OS X 10_15_7) AppleWebKit/537.36 (KHTML, like Gecko) Chrome/132.0.0.0 Safari/537.36" version="26.0.15" pages="2">
  <diagram name="Page-1" id="au125v5e2jPmrpgrDw_g">
    <mxGraphModel dx="2537" dy="3032" grid="1" gridSize="10" guides="1" tooltips="1" connect="1" arrows="1" fold="1" page="1" pageScale="1" pageWidth="827" pageHeight="1169" math="0" shadow="0">
      <root>
        <mxCell id="0" />
        <mxCell id="1" parent="0" />
        <mxCell id="43VmNQ_MAS7J2X_KPnHG-1" value="" style="rounded=0;whiteSpace=wrap;html=1;" vertex="1" parent="1">
          <mxGeometry x="89" y="120" width="400" height="200" as="geometry" />
        </mxCell>
        <mxCell id="43VmNQ_MAS7J2X_KPnHG-3" value="&lt;b&gt;Master Node&amp;nbsp;&lt;/b&gt;" style="text;html=1;align=center;verticalAlign=middle;whiteSpace=wrap;rounded=0;" vertex="1" parent="1">
          <mxGeometry x="90" y="120" width="80" height="30" as="geometry" />
        </mxCell>
        <mxCell id="43VmNQ_MAS7J2X_KPnHG-5" value="" style="whiteSpace=wrap;html=1;aspect=fixed;fillColor=#f5f5f5;fontColor=#333333;strokeColor=#666666;" vertex="1" parent="1">
          <mxGeometry x="600" y="30" width="230" height="230" as="geometry" />
        </mxCell>
        <mxCell id="43VmNQ_MAS7J2X_KPnHG-6" value="" style="whiteSpace=wrap;html=1;aspect=fixed;fillColor=#f5f5f5;fontColor=#333333;strokeColor=#666666;" vertex="1" parent="1">
          <mxGeometry x="600" y="290" width="230" height="230" as="geometry" />
        </mxCell>
        <mxCell id="43VmNQ_MAS7J2X_KPnHG-7" value="Kubelet" style="html=1;whiteSpace=wrap;" vertex="1" parent="1">
          <mxGeometry x="605" y="70" width="60" height="20" as="geometry" />
        </mxCell>
        <mxCell id="43VmNQ_MAS7J2X_KPnHG-8" value="Kubelet" style="html=1;whiteSpace=wrap;" vertex="1" parent="1">
          <mxGeometry x="605" y="330" width="70" height="20" as="geometry" />
        </mxCell>
        <mxCell id="43VmNQ_MAS7J2X_KPnHG-9" value="" style="rounded=0;whiteSpace=wrap;html=1;fillColor=#dae8fc;strokeColor=#6c8ebf;" vertex="1" parent="1">
          <mxGeometry x="610" y="130" width="210" height="120" as="geometry" />
        </mxCell>
        <mxCell id="43VmNQ_MAS7J2X_KPnHG-10" value="" style="rounded=0;whiteSpace=wrap;html=1;fillColor=#dae8fc;strokeColor=#6c8ebf;" vertex="1" parent="1">
          <mxGeometry x="610" y="400" width="210" height="110" as="geometry" />
        </mxCell>
        <mxCell id="43VmNQ_MAS7J2X_KPnHG-11" value="&lt;b&gt;Docker&lt;/b&gt;" style="text;html=1;align=center;verticalAlign=middle;whiteSpace=wrap;rounded=0;" vertex="1" parent="1">
          <mxGeometry x="610" y="130" width="50" height="20" as="geometry" />
        </mxCell>
        <mxCell id="43VmNQ_MAS7J2X_KPnHG-12" value="&lt;b&gt;Docker&lt;/b&gt;" style="text;html=1;align=center;verticalAlign=middle;whiteSpace=wrap;rounded=0;" vertex="1" parent="1">
          <mxGeometry x="610" y="400" width="50" height="20" as="geometry" />
        </mxCell>
        <mxCell id="43VmNQ_MAS7J2X_KPnHG-13" value="Kube-Proxy" style="html=1;whiteSpace=wrap;" vertex="1" parent="1">
          <mxGeometry x="730" y="70" width="70" height="20" as="geometry" />
        </mxCell>
        <mxCell id="43VmNQ_MAS7J2X_KPnHG-16" value="Kube-Proxy" style="html=1;whiteSpace=wrap;" vertex="1" parent="1">
          <mxGeometry x="740" y="320" width="70" height="20" as="geometry" />
        </mxCell>
        <mxCell id="43VmNQ_MAS7J2X_KPnHG-17" value="" style="verticalLabelPosition=bottom;verticalAlign=top;html=1;shape=mxgraph.basic.rect;fillColor2=none;strokeWidth=1;size=20;indent=5;fillColor=#fff2cc;strokeColor=#d6b656;" vertex="1" parent="1">
          <mxGeometry x="620" y="160" width="140" height="80" as="geometry" />
        </mxCell>
        <mxCell id="43VmNQ_MAS7J2X_KPnHG-18" value="" style="strokeWidth=2;html=1;shape=mxgraph.flowchart.multi-document;whiteSpace=wrap;fillColor=#f8cecc;strokeColor=#b85450;" vertex="1" parent="1">
          <mxGeometry x="660" y="180" width="88" height="60" as="geometry" />
        </mxCell>
        <mxCell id="43VmNQ_MAS7J2X_KPnHG-19" value="&lt;b&gt;POD&lt;/b&gt;" style="text;html=1;align=center;verticalAlign=middle;whiteSpace=wrap;rounded=0;" vertex="1" parent="1">
          <mxGeometry x="622.5" y="160" width="35" height="20" as="geometry" />
        </mxCell>
        <mxCell id="43VmNQ_MAS7J2X_KPnHG-21" value="Container" style="text;html=1;align=center;verticalAlign=middle;whiteSpace=wrap;rounded=0;" vertex="1" parent="1">
          <mxGeometry x="670" y="195" width="60" height="30" as="geometry" />
        </mxCell>
        <mxCell id="43VmNQ_MAS7J2X_KPnHG-22" value="" style="verticalLabelPosition=bottom;verticalAlign=top;html=1;shape=mxgraph.basic.rect;fillColor2=none;strokeWidth=1;size=20;indent=5;fillColor=#fff2cc;strokeColor=#d6b656;" vertex="1" parent="1">
          <mxGeometry x="670" y="420" width="140" height="80" as="geometry" />
        </mxCell>
        <mxCell id="43VmNQ_MAS7J2X_KPnHG-23" value="&lt;b&gt;POD&lt;/b&gt;" style="text;html=1;align=center;verticalAlign=middle;whiteSpace=wrap;rounded=0;" vertex="1" parent="1">
          <mxGeometry x="672.5" y="430" width="35" height="20" as="geometry" />
        </mxCell>
        <mxCell id="43VmNQ_MAS7J2X_KPnHG-24" value="" style="strokeWidth=2;html=1;shape=mxgraph.flowchart.multi-document;whiteSpace=wrap;fillColor=#f8cecc;strokeColor=#b85450;" vertex="1" parent="1">
          <mxGeometry x="712" y="440" width="88" height="60" as="geometry" />
        </mxCell>
        <mxCell id="43VmNQ_MAS7J2X_KPnHG-25" value="Container" style="text;html=1;align=center;verticalAlign=middle;whiteSpace=wrap;rounded=0;" vertex="1" parent="1">
          <mxGeometry x="720" y="455" width="60" height="30" as="geometry" />
        </mxCell>
        <mxCell id="43VmNQ_MAS7J2X_KPnHG-26" value="&lt;b&gt;Worker Node&lt;/b&gt;" style="text;html=1;align=center;verticalAlign=middle;whiteSpace=wrap;rounded=0;" vertex="1" parent="1">
          <mxGeometry x="600" y="30" width="86.25" height="30" as="geometry" />
        </mxCell>
        <mxCell id="43VmNQ_MAS7J2X_KPnHG-27" value="&lt;b&gt;Worker Node&lt;/b&gt;" style="text;html=1;align=center;verticalAlign=middle;whiteSpace=wrap;rounded=0;" vertex="1" parent="1">
          <mxGeometry x="600" y="290" width="86.25" height="30" as="geometry" />
        </mxCell>
        <mxCell id="43VmNQ_MAS7J2X_KPnHG-33" style="edgeStyle=orthogonalEdgeStyle;rounded=0;orthogonalLoop=1;jettySize=auto;html=1;entryX=1;entryY=0.55;entryDx=0;entryDy=0;entryPerimeter=0;fillColor=#f8cecc;strokeColor=#b85450;" edge="1" parent="1" source="43VmNQ_MAS7J2X_KPnHG-8" target="43VmNQ_MAS7J2X_KPnHG-1">
          <mxGeometry relative="1" as="geometry" />
        </mxCell>
        <mxCell id="43VmNQ_MAS7J2X_KPnHG-35" value="&lt;h1 style=&quot;margin-top: 0px;&quot;&gt;&lt;font style=&quot;font-size: 18px;&quot;&gt;Worker Nodes:&lt;/font&gt;&lt;/h1&gt;&lt;h1 style=&quot;margin-top: 0px;&quot;&gt;&lt;span style=&quot;background-color: transparent; color: light-dark(rgb(0, 0, 0), rgb(255, 255, 255)); font-weight: normal;&quot;&gt;&lt;font style=&quot;font-size: 18px;&quot;&gt;Responsible for running application containers. How is this done?&lt;/font&gt;&lt;/span&gt;&lt;/h1&gt;&lt;div&gt;&lt;b&gt;&lt;font size=&quot;3&quot;&gt;pods:&lt;/font&gt;&lt;/b&gt;&lt;/div&gt;&lt;div&gt;&lt;font size=&quot;3&quot;&gt;A pod is the smallest deployable unit managed by K8s. A pod contains one or more containers that share the same IP address and port.Containers within a Pod can communicate via localhost.&lt;/font&gt;&lt;/div&gt;&lt;div&gt;&lt;b&gt;&lt;font size=&quot;3&quot;&gt;Kubelet:&lt;/font&gt;&lt;/b&gt;&lt;/div&gt;&lt;div&gt;&lt;font size=&quot;3&quot;&gt;This is an agent that runs on all worker nodes which gets information from the master node(API server) to decide how the pods will be managed and ran.&lt;/font&gt;&lt;/div&gt;&lt;div&gt;&lt;b&gt;&lt;font size=&quot;3&quot;&gt;Kube-Proxy:&lt;/font&gt;&lt;/b&gt;&lt;/div&gt;&lt;div&gt;&lt;font size=&quot;3&quot;&gt;This is a networking component that is used for pod to pod connectivity and making the application accessible to the outside.&lt;/font&gt;&lt;/div&gt;&lt;div&gt;&lt;span style=&quot;font-size: 18px;&quot;&gt;&lt;br&gt;&lt;/span&gt;&lt;/div&gt;" style="text;html=1;whiteSpace=wrap;overflow=hidden;rounded=0;fillColor=#e1d5e7;strokeColor=#9673a6;" vertex="1" parent="1">
          <mxGeometry x="90" y="780" width="490" height="410" as="geometry" />
        </mxCell>
        <mxCell id="43VmNQ_MAS7J2X_KPnHG-91" style="edgeStyle=orthogonalEdgeStyle;rounded=0;orthogonalLoop=1;jettySize=auto;html=1;entryX=0.5;entryY=0;entryDx=0;entryDy=0;" edge="1" parent="1" source="43VmNQ_MAS7J2X_KPnHG-36" target="43VmNQ_MAS7J2X_KPnHG-37">
          <mxGeometry relative="1" as="geometry" />
        </mxCell>
        <mxCell id="43VmNQ_MAS7J2X_KPnHG-36" value="Kubectl" style="html=1;whiteSpace=wrap;fillColor=#f8cecc;strokeColor=#b85450;" vertex="1" parent="1">
          <mxGeometry x="365" y="60" width="80" height="30" as="geometry" />
        </mxCell>
        <mxCell id="43VmNQ_MAS7J2X_KPnHG-37" value="APi Server" style="html=1;whiteSpace=wrap;fillColor=#f5f5f5;strokeColor=#666666;fontColor=#333333;" vertex="1" parent="1">
          <mxGeometry x="330" y="150" width="159" height="100" as="geometry" />
        </mxCell>
        <mxCell id="43VmNQ_MAS7J2X_KPnHG-38" style="edgeStyle=orthogonalEdgeStyle;rounded=0;orthogonalLoop=1;jettySize=auto;html=1;entryX=1.001;entryY=0.366;entryDx=0;entryDy=0;entryPerimeter=0;fillColor=#f8cecc;strokeColor=#b85450;" edge="1" parent="1" source="43VmNQ_MAS7J2X_KPnHG-7" target="43VmNQ_MAS7J2X_KPnHG-1">
          <mxGeometry relative="1" as="geometry" />
        </mxCell>
        <mxCell id="43VmNQ_MAS7J2X_KPnHG-42" value="Building Blocks" style="label;whiteSpace=wrap;html=1;image=img/clipart/Gear_128x128.png;fillColor=#f8cecc;strokeColor=#b85450;" vertex="1" parent="1">
          <mxGeometry x="1321" y="250" width="159" height="60" as="geometry" />
        </mxCell>
        <mxCell id="43VmNQ_MAS7J2X_KPnHG-49" value="Pod&amp;nbsp;" style="whiteSpace=wrap;html=1;rounded=1;arcSize=50;align=center;verticalAlign=middle;strokeWidth=1;autosize=1;spacing=4;treeFolding=1;treeMoving=1;newEdgeStyle={&quot;edgeStyle&quot;:&quot;entityRelationEdgeStyle&quot;,&quot;startArrow&quot;:&quot;none&quot;,&quot;endArrow&quot;:&quot;none&quot;,&quot;segment&quot;:10,&quot;curved&quot;:1,&quot;sourcePerimeterSpacing&quot;:0,&quot;targetPerimeterSpacing&quot;:0};fillColor=#f8cecc;strokeColor=#b85450;" vertex="1" parent="1">
          <mxGeometry x="1540" y="60" width="70" height="30" as="geometry" />
        </mxCell>
        <mxCell id="43VmNQ_MAS7J2X_KPnHG-50" value="" style="edgeStyle=entityRelationEdgeStyle;startArrow=none;endArrow=none;segment=10;curved=1;sourcePerimeterSpacing=0;targetPerimeterSpacing=0;rounded=0;entryX=0;entryY=0.5;entryDx=0;entryDy=0;" edge="1" target="43VmNQ_MAS7J2X_KPnHG-49" parent="1">
          <mxGeometry relative="1" as="geometry">
            <mxPoint x="1440" y="250" as="sourcePoint" />
            <mxPoint x="1470" y="180" as="targetPoint" />
          </mxGeometry>
        </mxCell>
        <mxCell id="43VmNQ_MAS7J2X_KPnHG-52" value="&lt;h1 style=&quot;margin-top: 0px;&quot;&gt;&lt;font style=&quot;font-size: 18px;&quot;&gt;Master Node:&lt;/font&gt;&lt;/h1&gt;&lt;div&gt;&lt;font size=&quot;3&quot;&gt;Responsible for managing and orchestrating the cluster. It handles scheduling, networking and workload management.&lt;/font&gt;&lt;/div&gt;&lt;div&gt;&lt;font size=&quot;3&quot;&gt;&lt;br&gt;&lt;/font&gt;&lt;/div&gt;&lt;div&gt;&lt;font size=&quot;3&quot;&gt;&lt;b&gt;API-server:&amp;nbsp;&lt;/b&gt;&lt;/font&gt;&lt;/div&gt;&lt;div&gt;&lt;font size=&quot;3&quot;&gt;This is the entry point&amp;nbsp; for all K8s commands via kubectl and exposes the kubernetees APIs.&lt;/font&gt;&lt;/div&gt;&lt;div&gt;&lt;font size=&quot;3&quot;&gt;&lt;b&gt;Scheduler:&lt;/b&gt;&lt;/font&gt;&lt;/div&gt;&lt;div&gt;&lt;font size=&quot;3&quot;&gt;This assigns workloads to worker node depending on resource availability. Once decided by the scheduler, it sends the information to the API server, the API server then sends this info to the Kubelet.&lt;/font&gt;&lt;/div&gt;&lt;div&gt;&lt;font size=&quot;3&quot;&gt;&lt;b&gt;Controller Manager:&lt;/b&gt;&lt;/font&gt;&lt;/div&gt;&lt;div&gt;&lt;font size=&quot;3&quot;&gt;This is used to monitor and make sure everything is working. Does this by comparing the desired state to the actual state.&lt;/font&gt;&lt;/div&gt;&lt;div&gt;&lt;font size=&quot;3&quot;&gt;&lt;b&gt;ETCD:&lt;/b&gt;&lt;/font&gt;&lt;/div&gt;&lt;div&gt;&lt;font size=&quot;3&quot;&gt;Stores the entire cluster state and configuration.&amp;nbsp;&amp;nbsp;&lt;/font&gt;&lt;/div&gt;" style="text;html=1;whiteSpace=wrap;overflow=hidden;rounded=0;fillColor=#e1d5e7;strokeColor=#9673a6;" vertex="1" parent="1">
          <mxGeometry x="90" y="420" width="490" height="350" as="geometry" />
        </mxCell>
        <mxCell id="43VmNQ_MAS7J2X_KPnHG-57" value="" style="edgeStyle=orthogonalEdgeStyle;rounded=0;orthogonalLoop=1;jettySize=auto;html=1;" edge="1" parent="1" source="43VmNQ_MAS7J2X_KPnHG-55" target="43VmNQ_MAS7J2X_KPnHG-37">
          <mxGeometry relative="1" as="geometry" />
        </mxCell>
        <mxCell id="43VmNQ_MAS7J2X_KPnHG-55" value="Scheduler&amp;nbsp;" style="rounded=0;whiteSpace=wrap;html=1;fillColor=#f5f5f5;fontColor=#333333;strokeColor=#666666;" vertex="1" parent="1">
          <mxGeometry x="350" y="280" width="110" height="30" as="geometry" />
        </mxCell>
        <mxCell id="43VmNQ_MAS7J2X_KPnHG-60" style="edgeStyle=orthogonalEdgeStyle;rounded=0;orthogonalLoop=1;jettySize=auto;html=1;entryX=0;entryY=0.5;entryDx=0;entryDy=0;" edge="1" parent="1" source="43VmNQ_MAS7J2X_KPnHG-58" target="43VmNQ_MAS7J2X_KPnHG-37">
          <mxGeometry relative="1" as="geometry" />
        </mxCell>
        <mxCell id="43VmNQ_MAS7J2X_KPnHG-58" value="Controller manager&amp;nbsp;" style="rounded=0;whiteSpace=wrap;html=1;fillColor=#f5f5f5;strokeColor=#666666;fontColor=#333333;" vertex="1" parent="1">
          <mxGeometry x="170" y="270" width="120" height="30" as="geometry" />
        </mxCell>
        <mxCell id="43VmNQ_MAS7J2X_KPnHG-61" value="ETCD" style="rounded=0;whiteSpace=wrap;html=1;fillColor=#f5f5f5;fontColor=#333333;strokeColor=#666666;" vertex="1" parent="1">
          <mxGeometry x="110" y="170" width="120" height="60" as="geometry" />
        </mxCell>
        <mxCell id="43VmNQ_MAS7J2X_KPnHG-67" style="edgeStyle=orthogonalEdgeStyle;rounded=0;orthogonalLoop=1;jettySize=auto;html=1;exitX=0;exitY=0.25;exitDx=0;exitDy=0;entryX=1.004;entryY=0.4;entryDx=0;entryDy=0;entryPerimeter=0;" edge="1" parent="1" source="43VmNQ_MAS7J2X_KPnHG-37" target="43VmNQ_MAS7J2X_KPnHG-61">
          <mxGeometry relative="1" as="geometry" />
        </mxCell>
        <mxCell id="43VmNQ_MAS7J2X_KPnHG-69" style="edgeStyle=orthogonalEdgeStyle;rounded=0;orthogonalLoop=1;jettySize=auto;html=1;entryX=0.5;entryY=0;entryDx=0;entryDy=0;" edge="1" parent="1" source="43VmNQ_MAS7J2X_KPnHG-68" target="43VmNQ_MAS7J2X_KPnHG-13">
          <mxGeometry relative="1" as="geometry" />
        </mxCell>
        <mxCell id="43VmNQ_MAS7J2X_KPnHG-68" value="&lt;b&gt;Internet&lt;/b&gt;" style="ellipse;shape=cloud;whiteSpace=wrap;html=1;fillColor=#dae8fc;strokeColor=#6c8ebf;" vertex="1" parent="1">
          <mxGeometry x="696" y="-80" width="120" height="70" as="geometry" />
        </mxCell>
        <mxCell id="43VmNQ_MAS7J2X_KPnHG-72" style="edgeStyle=entityRelationEdgeStyle;rounded=0;orthogonalLoop=1;jettySize=auto;html=1;startArrow=none;endArrow=none;segment=10;curved=1;sourcePerimeterSpacing=0;targetPerimeterSpacing=0;exitX=1;exitY=0.75;exitDx=0;exitDy=0;" edge="1" parent="1" source="43VmNQ_MAS7J2X_KPnHG-70">
          <mxGeometry relative="1" as="geometry">
            <mxPoint x="1270" y="125.00000000000023" as="sourcePoint" />
            <mxPoint x="1341" y="250.00000000000023" as="targetPoint" />
          </mxGeometry>
        </mxCell>
        <mxCell id="43VmNQ_MAS7J2X_KPnHG-70" value="Labels&amp;nbsp;" style="whiteSpace=wrap;html=1;rounded=1;arcSize=50;align=center;verticalAlign=middle;strokeWidth=1;autosize=1;spacing=4;treeFolding=1;treeMoving=1;newEdgeStyle={&quot;edgeStyle&quot;:&quot;entityRelationEdgeStyle&quot;,&quot;startArrow&quot;:&quot;none&quot;,&quot;endArrow&quot;:&quot;none&quot;,&quot;segment&quot;:10,&quot;curved&quot;:1,&quot;sourcePerimeterSpacing&quot;:0,&quot;targetPerimeterSpacing&quot;:0};fillColor=#f8cecc;strokeColor=#b85450;" vertex="1" parent="1">
          <mxGeometry x="1070" y="80" width="115" height="30" as="geometry" />
        </mxCell>
        <mxCell id="43VmNQ_MAS7J2X_KPnHG-75" style="edgeStyle=entityRelationEdgeStyle;rounded=0;orthogonalLoop=1;jettySize=auto;html=1;startArrow=none;endArrow=none;segment=10;curved=1;sourcePerimeterSpacing=0;targetPerimeterSpacing=0;entryX=0;entryY=0.5;entryDx=0;entryDy=0;" edge="1" parent="1" source="43VmNQ_MAS7J2X_KPnHG-73" target="43VmNQ_MAS7J2X_KPnHG-42">
          <mxGeometry relative="1" as="geometry" />
        </mxCell>
        <mxCell id="43VmNQ_MAS7J2X_KPnHG-73" value="Selector&amp;nbsp;" style="whiteSpace=wrap;html=1;rounded=1;arcSize=50;align=center;verticalAlign=middle;strokeWidth=1;autosize=1;spacing=4;treeFolding=1;treeMoving=1;newEdgeStyle={&quot;edgeStyle&quot;:&quot;entityRelationEdgeStyle&quot;,&quot;startArrow&quot;:&quot;none&quot;,&quot;endArrow&quot;:&quot;none&quot;,&quot;segment&quot;:10,&quot;curved&quot;:1,&quot;sourcePerimeterSpacing&quot;:0,&quot;targetPerimeterSpacing&quot;:0};fillColor=#f8cecc;strokeColor=#b85450;" vertex="1" parent="1">
          <mxGeometry x="1095" y="325" width="90" height="30" as="geometry" />
        </mxCell>
        <mxCell id="43VmNQ_MAS7J2X_KPnHG-82" style="edgeStyle=entityRelationEdgeStyle;rounded=0;orthogonalLoop=1;jettySize=auto;html=1;startArrow=none;endArrow=none;segment=10;curved=1;sourcePerimeterSpacing=0;targetPerimeterSpacing=0;entryX=0.133;entryY=1.015;entryDx=0;entryDy=0;entryPerimeter=0;" edge="1" parent="1" target="43VmNQ_MAS7J2X_KPnHG-42">
          <mxGeometry relative="1" as="geometry">
            <mxPoint x="1311" y="490" as="sourcePoint" />
            <mxPoint x="1272" y="295" as="targetPoint" />
          </mxGeometry>
        </mxCell>
        <mxCell id="43VmNQ_MAS7J2X_KPnHG-78" value="Controller&amp;nbsp;" style="whiteSpace=wrap;html=1;rounded=1;arcSize=50;align=center;verticalAlign=middle;strokeWidth=1;autosize=1;spacing=4;treeFolding=1;treeMoving=1;newEdgeStyle={&quot;edgeStyle&quot;:&quot;entityRelationEdgeStyle&quot;,&quot;startArrow&quot;:&quot;none&quot;,&quot;endArrow&quot;:&quot;none&quot;,&quot;segment&quot;:10,&quot;curved&quot;:1,&quot;sourcePerimeterSpacing&quot;:0,&quot;targetPerimeterSpacing&quot;:0};fillColor=#f8cecc;strokeColor=#b85450;" vertex="1" parent="1">
          <mxGeometry x="1260" y="490" width="100" height="30" as="geometry" />
        </mxCell>
        <mxCell id="43VmNQ_MAS7J2X_KPnHG-85" value="ReplicaSet" style="whiteSpace=wrap;html=1;rounded=1;arcSize=50;align=center;verticalAlign=middle;strokeWidth=1;autosize=1;spacing=4;treeFolding=1;treeMoving=1;newEdgeStyle={&quot;edgeStyle&quot;:&quot;entityRelationEdgeStyle&quot;,&quot;startArrow&quot;:&quot;none&quot;,&quot;endArrow&quot;:&quot;none&quot;,&quot;segment&quot;:10,&quot;curved&quot;:1,&quot;sourcePerimeterSpacing&quot;:0,&quot;targetPerimeterSpacing&quot;:0};fillColor=#f8cecc;strokeColor=#b85450;" vertex="1" parent="1">
          <mxGeometry x="1554" y="455" width="100" height="30" as="geometry" />
        </mxCell>
        <mxCell id="43VmNQ_MAS7J2X_KPnHG-87" style="edgeStyle=entityRelationEdgeStyle;rounded=0;orthogonalLoop=1;jettySize=auto;html=1;startArrow=none;endArrow=none;segment=10;curved=1;sourcePerimeterSpacing=0;targetPerimeterSpacing=0;entryX=0.841;entryY=0.945;entryDx=0;entryDy=0;entryPerimeter=0;" edge="1" parent="1" source="43VmNQ_MAS7J2X_KPnHG-85" target="43VmNQ_MAS7J2X_KPnHG-42">
          <mxGeometry relative="1" as="geometry" />
        </mxCell>
        <mxCell id="43VmNQ_MAS7J2X_KPnHG-90" style="edgeStyle=entityRelationEdgeStyle;rounded=0;orthogonalLoop=1;jettySize=auto;html=1;startArrow=none;endArrow=none;segment=10;curved=1;sourcePerimeterSpacing=0;targetPerimeterSpacing=0;entryX=1;entryY=0.5;entryDx=0;entryDy=0;" edge="1" parent="1" source="43VmNQ_MAS7J2X_KPnHG-88" target="43VmNQ_MAS7J2X_KPnHG-42">
          <mxGeometry relative="1" as="geometry" />
        </mxCell>
        <mxCell id="43VmNQ_MAS7J2X_KPnHG-88" value="Service&amp;nbsp;" style="whiteSpace=wrap;html=1;rounded=1;arcSize=50;align=center;verticalAlign=middle;strokeWidth=1;autosize=1;spacing=4;treeFolding=1;treeMoving=1;newEdgeStyle={&quot;edgeStyle&quot;:&quot;entityRelationEdgeStyle&quot;,&quot;startArrow&quot;:&quot;none&quot;,&quot;endArrow&quot;:&quot;none&quot;,&quot;segment&quot;:10,&quot;curved&quot;:1,&quot;sourcePerimeterSpacing&quot;:0,&quot;targetPerimeterSpacing&quot;:0};fillColor=#f8cecc;strokeColor=#b85450;" vertex="1" parent="1">
          <mxGeometry x="1640" y="195" width="90" height="30" as="geometry" />
        </mxCell>
        <mxCell id="43VmNQ_MAS7J2X_KPnHG-92" value="A key/value pair attached to resources like pods&amp;nbsp;" style="text;html=1;align=left;verticalAlign=middle;whiteSpace=wrap;rounded=0;" vertex="1" parent="1">
          <mxGeometry x="1080" y="125" width="142.5" height="40" as="geometry" />
        </mxCell>
        <mxCell id="43VmNQ_MAS7J2X_KPnHG-93" value="Used to organise resources the have labels&amp;nbsp; attached.&amp;nbsp;&lt;div&gt;There are equality-based and set-based selectors.&lt;/div&gt;" style="text;html=1;align=left;verticalAlign=middle;whiteSpace=wrap;rounded=0;" vertex="1" parent="1">
          <mxGeometry x="1095" y="370" width="185" height="60" as="geometry" />
        </mxCell>
        <mxCell id="43VmNQ_MAS7J2X_KPnHG-94" value="The smallest deployable unit in K8s&amp;nbsp;" style="text;html=1;align=left;verticalAlign=middle;whiteSpace=wrap;rounded=0;" vertex="1" parent="1">
          <mxGeometry x="1545" y="100" width="155" height="30" as="geometry" />
        </mxCell>
        <mxCell id="43VmNQ_MAS7J2X_KPnHG-95" value="This uses selectors to define a group pods and define how they are accessed.&amp;nbsp;&lt;div&gt;&lt;b&gt;Types :&lt;/b&gt;&lt;/div&gt;&lt;div&gt;1.&lt;b&gt; ClusterIP&lt;/b&gt; - Exposes pods to connections from inside the Pod.&lt;/div&gt;&lt;div&gt;2. &lt;b&gt;Node Port&lt;/b&gt; - exposes pods to external traffic&lt;/div&gt;&lt;div&gt;3. &lt;b&gt;Load Balancer &lt;/b&gt;- exposes pods to external traffic whilst providing load-balancing&amp;nbsp;&lt;/div&gt;" style="text;html=1;align=left;verticalAlign=middle;whiteSpace=wrap;rounded=0;" vertex="1" parent="1">
          <mxGeometry x="1654" y="240" width="316" height="120" as="geometry" />
        </mxCell>
        <mxCell id="43VmNQ_MAS7J2X_KPnHG-96" value="Responsible for running a umber of copies of pods across cluster" style="text;html=1;align=left;verticalAlign=middle;whiteSpace=wrap;rounded=0;" vertex="1" parent="1">
          <mxGeometry x="1560" y="500" width="160" height="30" as="geometry" />
        </mxCell>
        <mxCell id="43VmNQ_MAS7J2X_KPnHG-98" value="Manages a set of pods and makes sure that they are running in the specified state" style="text;html=1;align=left;verticalAlign=middle;whiteSpace=wrap;rounded=0;" vertex="1" parent="1">
          <mxGeometry x="1260" y="550" width="160" height="30" as="geometry" />
        </mxCell>
        <mxCell id="OM_QYACAMAGN5O2TzOeq-3" value="" style="edgeStyle=orthogonalEdgeStyle;rounded=0;orthogonalLoop=1;jettySize=auto;html=1;" edge="1" parent="1" source="OM_QYACAMAGN5O2TzOeq-1" target="OM_QYACAMAGN5O2TzOeq-2">
          <mxGeometry relative="1" as="geometry" />
        </mxCell>
        <mxCell id="OM_QYACAMAGN5O2TzOeq-1" value="Commands&amp;nbsp;" style="ellipse;whiteSpace=wrap;html=1;" vertex="1" parent="1">
          <mxGeometry x="1340.5" y="1070" width="120" height="80" as="geometry" />
        </mxCell>
        <mxCell id="OM_QYACAMAGN5O2TzOeq-2" value="&lt;div&gt;&lt;b&gt;kubectl config current-context&lt;/b&gt;&lt;/div&gt;&lt;div style=&quot;text-align: left;&quot;&gt;&lt;br&gt;&lt;/div&gt;&lt;div style=&quot;text-align: left;&quot;&gt;shows the current cluster your on&lt;/div&gt;" style="whiteSpace=wrap;html=1;" vertex="1" parent="1">
          <mxGeometry x="1295.75" y="870" width="209.5" height="60" as="geometry" />
        </mxCell>
      </root>
    </mxGraphModel>
  </diagram>
  <diagram id="qOCQspUGfWdLFjkAk_Ty" name="Page-2">
    <mxGraphModel dx="1588" dy="559" grid="1" gridSize="10" guides="1" tooltips="1" connect="1" arrows="1" fold="1" page="1" pageScale="1" pageWidth="827" pageHeight="1169" math="0" shadow="0">
      <root>
        <mxCell id="0" />
        <mxCell id="1" parent="0" />
        <mxCell id="jyHFCVS3zSPnJzgJckQX-3" value="" style="edgeStyle=orthogonalEdgeStyle;rounded=0;orthogonalLoop=1;jettySize=auto;html=1;" edge="1" parent="1" source="jyHFCVS3zSPnJzgJckQX-1" target="jyHFCVS3zSPnJzgJckQX-2">
          <mxGeometry relative="1" as="geometry" />
        </mxCell>
        <mxCell id="jyHFCVS3zSPnJzgJckQX-12" value="" style="edgeStyle=orthogonalEdgeStyle;rounded=0;orthogonalLoop=1;jettySize=auto;html=1;" edge="1" parent="1" source="jyHFCVS3zSPnJzgJckQX-1" target="jyHFCVS3zSPnJzgJckQX-11">
          <mxGeometry relative="1" as="geometry" />
        </mxCell>
        <UserObject label="&lt;b&gt;Docker&lt;/b&gt;" placeholders="1" name="Variable" id="jyHFCVS3zSPnJzgJckQX-1">
          <mxCell style="text;html=1;strokeColor=none;fillColor=none;align=center;verticalAlign=middle;whiteSpace=wrap;overflow=hidden;" vertex="1" parent="1">
            <mxGeometry x="90" y="90" width="80" height="20" as="geometry" />
          </mxCell>
        </UserObject>
        <mxCell id="jyHFCVS3zSPnJzgJckQX-2" value="&lt;div&gt;&lt;b&gt;&lt;font style=&quot;font-size: 9px;&quot;&gt;What is docker ?&lt;/font&gt;&lt;/b&gt;&lt;/div&gt;&lt;font style=&quot;font-size: 10px;&quot;&gt;Docker allows you to package software and run it on any machine.&lt;/font&gt;" style="rounded=1;whiteSpace=wrap;html=1;align=left;" vertex="1" parent="1">
          <mxGeometry x="55" y="210" width="150" height="60" as="geometry" />
        </mxCell>
        <mxCell id="jyHFCVS3zSPnJzgJckQX-9" value="" style="edgeStyle=entityRelationEdgeStyle;rounded=0;orthogonalLoop=1;jettySize=auto;html=1;startArrow=none;endArrow=none;segment=10;curved=1;sourcePerimeterSpacing=0;targetPerimeterSpacing=0;" edge="1" parent="1" source="jyHFCVS3zSPnJzgJckQX-6" target="jyHFCVS3zSPnJzgJckQX-8">
          <mxGeometry relative="1" as="geometry" />
        </mxCell>
        <mxCell id="jyHFCVS3zSPnJzgJckQX-6" value="&lt;b&gt;What are the benefits?&lt;/b&gt;" style="whiteSpace=wrap;html=1;shape=partialRectangle;top=0;left=0;bottom=1;right=0;points=[[0,1],[1,1]];fillColor=none;align=center;verticalAlign=bottom;routingCenterY=0.5;snapToPoint=1;recursiveResize=0;autosize=1;treeFolding=1;treeMoving=1;newEdgeStyle={&quot;edgeStyle&quot;:&quot;entityRelationEdgeStyle&quot;,&quot;startArrow&quot;:&quot;none&quot;,&quot;endArrow&quot;:&quot;none&quot;,&quot;segment&quot;:10,&quot;curved&quot;:1,&quot;sourcePerimeterSpacing&quot;:0,&quot;targetPerimeterSpacing&quot;:0};" vertex="1" parent="1">
          <mxGeometry x="230" y="40" width="170" height="30" as="geometry" />
        </mxCell>
        <mxCell id="jyHFCVS3zSPnJzgJckQX-7" value="" style="edgeStyle=entityRelationEdgeStyle;startArrow=none;endArrow=none;segment=10;curved=1;sourcePerimeterSpacing=0;targetPerimeterSpacing=0;rounded=0;" edge="1" parent="1">
          <mxGeometry relative="1" as="geometry">
            <mxPoint x="150" y="100" as="sourcePoint" />
            <mxPoint x="230" y="70" as="targetPoint" />
            <Array as="points">
              <mxPoint x="270" y="100" />
              <mxPoint x="260" y="70" />
              <mxPoint x="240" y="70" />
              <mxPoint x="260" y="70" />
            </Array>
          </mxGeometry>
        </mxCell>
        <mxCell id="jyHFCVS3zSPnJzgJckQX-8" value="" style="whiteSpace=wrap;html=1;verticalAlign=bottom;fillColor=none;autosize=1;" vertex="1" parent="1">
          <mxGeometry x="414" y="30" width="116" height="80" as="geometry" />
        </mxCell>
        <mxCell id="jyHFCVS3zSPnJzgJckQX-10" value="&lt;ul&gt;&lt;li&gt;Durable&amp;nbsp;&lt;/li&gt;&lt;li&gt;Lightweight&amp;nbsp;&lt;/li&gt;&lt;li&gt;Portable&lt;/li&gt;&lt;li&gt;scalable&amp;nbsp;&lt;/li&gt;&lt;/ul&gt;" style="text;html=1;align=left;verticalAlign=middle;whiteSpace=wrap;rounded=0;" vertex="1" parent="1">
          <mxGeometry x="414" y="55" width="50" height="30" as="geometry" />
        </mxCell>
        <mxCell id="jyHFCVS3zSPnJzgJckQX-11" value="&lt;b&gt;&lt;font style=&quot;font-size: 10px;&quot;&gt;What is a Dockerfile?&lt;/font&gt;&lt;/b&gt;&lt;div&gt;&lt;font style=&quot;font-size: 10px;&quot;&gt;This is a blueprint for building an image&lt;/font&gt;&lt;/div&gt;&lt;div&gt;&lt;font style=&quot;font-size: 10px;&quot;&gt;&lt;b&gt;What is an image ?&lt;/b&gt;&lt;/font&gt;&lt;/div&gt;&lt;div&gt;&lt;font style=&quot;font-size: 10px;&quot;&gt;This is a template for running Docker containers.&lt;/font&gt;&lt;/div&gt;&lt;div&gt;&lt;font style=&quot;font-size: 10px;&quot;&gt;&lt;b&gt;What is a Container?&lt;/b&gt;&lt;/font&gt;&lt;/div&gt;&lt;div&gt;&lt;span style=&quot;font-size: 10px;&quot;&gt;This is a running process of a image&lt;/span&gt;&lt;/div&gt;&lt;div&gt;&lt;font style=&quot;font-size: 10px;&quot;&gt;&lt;br&gt;&lt;/font&gt;&lt;/div&gt;" style="whiteSpace=wrap;html=1;align=left;" vertex="1" parent="1">
          <mxGeometry x="-200" y="40" width="185" height="120" as="geometry" />
        </mxCell>
        <mxCell id="jyHFCVS3zSPnJzgJckQX-14" value="" style="edgeStyle=entityRelationEdgeStyle;startArrow=none;endArrow=none;segment=10;curved=1;sourcePerimeterSpacing=0;targetPerimeterSpacing=0;rounded=0;" edge="1" parent="1">
          <mxGeometry relative="1" as="geometry">
            <mxPoint x="110" y="120" as="sourcePoint" />
            <mxPoint x="-40" y="280" as="targetPoint" />
            <Array as="points">
              <mxPoint x="-40" y="200" />
              <mxPoint x="100" y="140" />
              <mxPoint y="160" />
              <mxPoint x="100" y="140" />
              <mxPoint x="-50" y="200" />
            </Array>
          </mxGeometry>
        </mxCell>
        <mxCell id="jyHFCVS3zSPnJzgJckQX-16" value="&lt;span style=&quot;white-space: pre;&quot;&gt;&#x9;&lt;/span&gt;&lt;b&gt;What problems has it solved?&lt;/b&gt;&lt;div&gt;&lt;ul&gt;&lt;li&gt;The need to perform an install on every server and environment&lt;/li&gt;&lt;li&gt;The need to resolve issues related to libraries and dependancies&lt;/li&gt;&lt;li&gt;Inconsistencies across environments&lt;/li&gt;&lt;li&gt;Needing to scale&amp;nbsp; &amp;nbsp;&lt;/li&gt;&lt;/ul&gt;&lt;div&gt;&lt;br&gt;&lt;/div&gt;&lt;/div&gt;" style="rounded=1;whiteSpace=wrap;html=1;align=left;" vertex="1" parent="1">
          <mxGeometry x="-220" y="240" width="260" height="160" as="geometry" />
        </mxCell>
      </root>
    </mxGraphModel>
  </diagram>
</mxfile>
